<svg xmlns="http://www.w3.org/2000/svg" xmlns:xlink="http://www.w3.org/1999/xlink" viewBox="0,0,256,256" width="60px" height="60px"><g fill="#295e15" fill-rule="nonzero" stroke="none" stroke-width="1" stroke-linecap="butt" stroke-linejoin="miter" stroke-miterlimit="10" stroke-dasharray="" stroke-dashoffset="0" font-family="none" font-weight="none" font-size="none" text-anchor="none" style="mix-blend-mode: normal"><g transform="scale(8.53333,8.53333)"><path d="M15,2c-4.418,0 -8,3.582 -8,8c0,6 7,8 7,12c0,0.552 0.448,1 1,1c0.552,0 1,-0.448 1,-1c0,-4 7,-6 7,-12c0,-4.418 -3.582,-8 -8,-8zM15,8c1.105,0 2,0.895 2,2c0,1.105 -0.895,2 -2,2c-1.105,0 -2,-0.895 -2,-2c0,-1.105 0.895,-2 2,-2zM9.38086,18.45703c-4.155,0.71 -7.38086,2.23897 -7.38086,4.54297c0,3.282 6.54,5 13,5c6.46,0 13,-1.718 13,-5c0,-2.304 -3.22586,-3.83297 -7.38086,-4.54297c-0.081,0.081 -0.16314,0.16123 -0.24414,0.24023c-0.547,0.539 -1.05584,1.04539 -1.46484,1.52539c4.612,0.543 7.08984,1.96534 7.08984,2.77734c0,1.019 -3.883,3 -11,3c-7.117,0 -11,-1.981 -11,-3c0,-0.812 2.47784,-2.23434 7.08984,-2.77734c-0.41,-0.48 -0.91884,-0.98639 -1.46484,-1.52539c-0.08,-0.079 -0.16214,-0.15923 -0.24414,-0.24023z"></path></g></g></svg>