<svg xmlns="http://www.w3.org/2000/svg" xmlns:xlink="http://www.w3.org/1999/xlink" viewBox="0,0,256,256" width="60px" height="60px"><g fill="#295e15" fill-rule="nonzero" stroke="none" stroke-width="1" stroke-linecap="butt" stroke-linejoin="miter" stroke-miterlimit="10" stroke-dasharray="" stroke-dashoffset="0" font-family="none" font-weight="none" font-size="none" text-anchor="none" style="mix-blend-mode: normal"><g transform="scale(8.53333,8.53333)"><path d="M24,4h-18c-1.105,0 -2,0.895 -2,2v18c0,1.105 0.895,2 2,2h18c1.105,0 2,-0.895 2,-2v-18c0,-1.105 -0.895,-2 -2,-2zM7,23c-0.552,0 -1,-0.448 -1,-1c0,-0.552 0.448,-1 1,-1c0.552,0 1,0.448 1,1c0,0.552 -0.448,1 -1,1zM7,19c-0.552,0 -1,-0.448 -1,-1c0,-0.552 0.448,-1 1,-1c0.552,0 1,0.448 1,1c0,0.552 -0.448,1 -1,1zM11,23c-0.552,0 -1,-0.448 -1,-1c0,-0.552 0.448,-1 1,-1c0.552,0 1,0.448 1,1c0,0.552 -0.448,1 -1,1zM11,19c-0.552,0 -1,-0.448 -1,-1c0,-0.552 0.448,-1 1,-1c0.552,0 1,0.448 1,1c0,0.552 -0.448,1 -1,1zM11,15c-0.552,0 -1,-0.448 -1,-1c0,-0.552 0.448,-1 1,-1c0.552,0 1,0.448 1,1c0,0.552 -0.448,1 -1,1zM15,23c-0.552,0 -1,-0.448 -1,-1c0,-0.552 0.448,-1 1,-1c0.552,0 1,0.448 1,1c0,0.552 -0.448,1 -1,1zM15,19c-0.552,0 -1,-0.448 -1,-1c0,-0.552 0.448,-1 1,-1c0.552,0 1,0.448 1,1c0,0.552 -0.448,1 -1,1zM15,15c-0.552,0 -1,-0.448 -1,-1c0,-0.552 0.448,-1 1,-1c0.552,0 1,0.448 1,1c0,0.552 -0.448,1 -1,1zM19,23c-0.552,0 -1,-0.448 -1,-1c0,-0.552 0.448,-1 1,-1c0.552,0 1,0.448 1,1c0,0.552 -0.448,1 -1,1zM23.707,17.293c0.391,0.391 0.391,1.023 0,1.414c-0.195,0.195 -0.451,0.293 -0.707,0.293c-0.256,0 -0.512,-0.098 -0.707,-0.293l-1.293,-1.293l-1.293,1.293c-0.195,0.195 -0.451,0.293 -0.707,0.293c-0.256,0 -0.512,-0.098 -0.707,-0.293c-0.391,-0.391 -0.391,-1.023 0,-1.414l1.293,-1.293l-1.293,-1.293c-0.391,-0.391 -0.391,-1.023 0,-1.414c0.391,-0.391 1.023,-0.391 1.414,0l1.293,1.293l1.293,-1.293c0.391,-0.391 1.023,-0.391 1.414,0c0.391,0.391 0.391,1.023 0,1.414l-1.293,1.293zM24,10h-18v-4h18z"></path></g></g></svg>